<svg xmlns="http://www.w3.org/2000/svg" width="800" height="600" viewBox="0 0 800 600" fill="none">
  <defs>
    <linearGradient id="bg" x1="0" y1="0" x2="1" y2="1">
      <stop offset="0" stop-color="#fff5e6"/>
      <stop offset="1" stop-color="#ffe4ef"/>
    </linearGradient>
    <linearGradient id="steam" x1="0" y1="0" x2="0" y2="1">
      <stop offset="0" stop-color="#ffb07a"/>
      <stop offset="1" stop-color="#ff6f91"/>
    </linearGradient>
  </defs>
  <rect width="800" height="600" rx="48" fill="url(#bg)"/>
  <path d="M240 120c-20 30-20 60 0 90" stroke="url(#steam)" stroke-width="12" stroke-linecap="round"/>
  <path d="M320 110c-20 30-20 60 0 90" stroke="url(#steam)" stroke-width="12" stroke-linecap="round"/>
  <path d="M400 120c-20 30-20 60 0 90" stroke="url(#steam)" stroke-width="12" stroke-linecap="round"/>
  <path d="M220 280h360c0 90-80 160-180 160s-180-70-180-160Z" fill="#ffffff" stroke="#ff9f6e" stroke-width="10"/>
  <path d="M240 300c40 40 80 60 160 60s120-20 160-60" stroke="#ffcf7d" stroke-width="16" stroke-linecap="round"/>
  <circle cx="310" cy="320" r="12" fill="#ff9f6e"/>
  <circle cx="360" cy="340" r="10" fill="#ff9f6e"/>
  <circle cx="440" cy="330" r="11" fill="#ff9f6e"/>
  <circle cx="490" cy="320" r="9" fill="#ff9f6e"/>
  <text x="260" y="510" font-family="Arial, sans-serif" font-size="44" font-weight="700" fill="#2b1f1a">RAMEN WORLDCUP</text>
</svg>
